<svg viewBox="0 0 335.57 45" xmlns="http://www.w3.org/2000/svg"><path d="m77.04 11.53c0-2.84 2.27-6.43 8.7-6.43 1.89 0 3.56.26 4.97.62 2.38.61 4.84-.64 5.68-2.96-2.14-1.2-5.61-2.27-10.53-2.27-8.76 0-14.62 4.98-14.62 11.6 0 5.75 3.68 9.22 10.94 11.71l3.1-4.59c-5.8-1.97-8.24-3.98-8.24-7.69z" fill="#719ed9"/><path d="m86.24 19.54c-.33-.11-.65-.21-.96-.32l-3.1 4.59c.46.16.93.31 1.41.46 6.49 2.02 8.83 4.35 8.83 8.26 0 4.35-3.53 7.25-9.52 7.25-2.54 0-4.92-.45-7.02-1.18-2.28-.79-4.77.36-5.53 2.65l-.06.17c2.58 1.76 7.57 3.09 12.04 3.09 11.22 0 15.89-6.11 15.89-12.36 0-6.75-4.1-10.09-11.98-12.61z" fill="#abd7ff"/><path d="m153.46 22.75c0-10.59 7-17.59 18.79-17.59 2.09 0 4.07.24 5.83.64 2.41.54 4.83-.81 5.58-3.16-1.64-.82-5.55-2.14-11.66-2.14-15.32 0-24.59 10.15-24.59 22.32 0 4.96 1.31 9.15 3.59 12.49l4.34-4.34c-1.24-2.42-1.88-5.21-1.88-8.21z" fill="#719ed9"/><path d="m178.38 39c-2.03.46-4.32.71-6.58.71-8.2 0-13.77-3.49-16.47-8.75l-4.34 4.34c4.05 5.95 11.18 9.2 19.61 9.2 6.05 0 10.72-1.26 12.92-2.33-.6-2.26-2.87-3.68-5.15-3.17z" fill="#abd7ff"/><path d="m295.58 38.13c-1.58.82-4.48 1.39-8.7 1.39-11.54 0-18.47-7.12-18.47-17.08 0-3.39.86-6.45 2.45-9.02l-3.91-3.91c-3.03 3.75-4.59 8.35-4.59 13.12 0 6.24 2.33 11.85 6.18 15.44 4.54 4.29 10.46 6.12 17.84 6.12 5.55 0 10.2-1.11 13.19-2.07z" fill="#abd7ff"/><path d="m287.45 5.48c2.68 0 4.87.26 6.74.69 2.39.55 4.81-.81 5.55-3.15-1.95-.94-6.43-2.21-12.1-2.21-9.54 0-16.51 3.52-20.69 8.69l3.91 3.91c3.02-4.87 8.74-7.94 16.58-7.94z" fill="#719ed9"/><path d="m301.26 41.54v-20.17h-15.32c0 2.51 2.03 4.54 4.54 4.54h5.11v12.23l3.99 3.99c.64-.21 1.21-.4 1.69-.58z" fill="#719ed9"/><path d="m110.27 6.99c0-3.17-2.57-5.74-5.74-5.74v42.49h5.74z" fill="#719ed9"/><path d="m110.27 38.95v4.79h15.45c2.65 0 4.79-2.14 4.79-4.79z" fill="#abd7ff"/><path d="m135.19 1.26v36.75c0 3.17 2.57 5.74 5.74 5.74v-36.76c0-3.17-2.57-5.74-5.74-5.74z" fill="#719ed9"/><path d="m194.5 6.99c0-3.17-2.57-5.74-5.74-5.74v42.49c3.17 0 5.74-2.57 5.74-5.74z" fill="#abd7ff"/><path d="m199.1 22.75-4.6 4.92v-5.86h.19c1.2-1.58 2.46-2.96 3.59-4.29l14.69-16.26c2.74 0 4.15 3.28 2.27 5.27l-12.04 12.76-4.1 3.47" fill="#719ed9"/><path d="m199.1 22.75 15.76 20.99c2.82 0 4.42-3.23 2.72-5.48l-14.38-18.98z" fill="#abd7ff"/><path d="m245.71 1.26h-7l-16.01 42.49c3.63 0 6.87-2.28 8.09-5.7l2.81-7.86 1.26-4.41 4.85-12.8c.95-2.52 1.58-4.79 2.27-7h.13c.63 2.14 1.32 4.35 2.33 7.06l4.85 12.73 1.26 4.41 2.97 7.78c1.33 3.48 4.66 5.77 8.38 5.77z" fill="#719ed9"/><path d="m234.87 25.78-1.26 4.41h16.96l-1.26-4.41z" fill="#abd7ff"/><path d="m329.84 5.92c2.58 0 4.66-2.09 4.66-4.66h-19.48v4.66h14.81z" fill="#719ed9"/><path d="m328.77 23.89c2.58 0 4.66-2.09 4.66-4.66h-18.41v4.66h13.74z" fill="#719ed9"/><path d="m315.02 23.89v-4.67-13.3-4.66h-5.73v42.48h5.73v-4.66z" fill="#abd7ff"/><g fill="#719ed9"><path d="m330.91 39.08h-15.88v4.67h20.55c0-2.58-2.09-4.67-4.67-4.67z"/><path d="m.27 44.52c-.21-.08-.32-.32-.25-.53l14.14-38.82c1.48-4.08 5.98-6.18 10.06-4.69.21.08.32.32.25.53l-14.13 38.83c-1.48 4.07-5.99 6.18-10.06 4.69z"/><path d="m13.99 44.52c-.21-.08-.32-.32-.25-.53l14.14-38.82c1.48-4.07 5.99-6.18 10.06-4.69.21.08.32.32.25.53l-14.13 38.83c-1.48 4.07-5.99 6.18-10.06 4.69z"/><path d="m27.72 44.52c-.21-.08-.32-.32-.25-.53l14.13-38.82c1.48-4.07 5.99-6.18 10.06-4.69.21.08.32.32.25.53l-14.13 38.83c-1.48 4.07-5.99 6.18-10.06 4.69z"/></g></svg>